<?xml version="1.0" standalone="no"?>
<!DOCTYPE svg PUBLIC "-//W3C//DTD SVG 20010904//EN"
 "http://www.w3.org/TR/2001/REC-SVG-20010904/DTD/svg10.dtd">
<svg version="1.0" xmlns="http://www.w3.org/2000/svg"
 width="732.000000pt" height="732.000000pt" viewBox="0 0 732.000000 732.000000"
 preserveAspectRatio="xMidYMid meet">
<metadata>
Created by potrace 1.11, written by Peter Selinger 2001-2013
</metadata>
<g transform="translate(0.000000,732.000000) scale(0.100000,-0.100000)"
fill="#000000" stroke="none">
<path d="M2990 4571 c8 -6 26 -11 40 -11 39 -1 103 -34 132 -68 15 -18 36 -57
47 -87 20 -54 21 -73 21 -655 0 -406 4 -616 11 -652 18 -84 48 -138 114 -204
93 -94 242 -154 383 -154 l62 0 -7 385 c-4 230 -3 385 3 385 5 0 122 -163 259
-361 138 -199 255 -363 260 -365 6 -2 164 -3 353 -2 l343 3 -415 593 c-228
326 -418 596 -420 601 -3 4 90 125 206 269 l210 262 144 0 c89 0 144 4 144 10
0 6 -117 10 -330 10 -208 0 -330 -4 -330 -10 0 -6 68 -11 169 -12 l169 -3
-167 -206 c-91 -113 -263 -326 -381 -472 l-215 -265 -5 266 c-6 260 -6 269
-32 335 -82 205 -245 328 -514 387 -109 23 -277 37 -254 21z"/>
<path d="M2923 4563 c9 -2 25 -2 35 0 9 3 1 5 -18 5 -19 0 -27 -2 -17 -5z"/>
<path d="M2800 4541 c-176 -56 -361 -206 -416 -337 -24 -55 -22 -168 3 -225
46 -104 157 -179 263 -179 96 0 156 24 220 88 48 49 59 67 75 124 21 78 16
133 -16 209 -27 62 -102 131 -166 153 -59 20 -153 21 -200 1 -20 -8 -38 -13
-40 -11 -9 8 103 89 170 123 38 19 102 43 141 53 39 10 60 19 46 19 -14 0 -50
-8 -80 -18z"/>
<path d="M3019 3726 c-2 -3 -51 -10 -109 -16 -239 -26 -368 -72 -475 -172
-115 -107 -161 -222 -153 -383 7 -130 34 -192 119 -278 70 -70 115 -96 214
-122 77 -20 222 -18 304 3 75 20 93 42 34 42 -45 1 -63 13 -89 60 -17 32 -19
59 -19 330 l0 295 32 66 c31 61 91 130 138 157 11 6 17 13 14 16 -3 3 -8 4
-10 2z"/>
</g>
</svg>
